<svg id="图层_1" data-name="图层 1" xmlns="http://www.w3.org/2000/svg" width="90.55mm" height="86.77mm" viewBox="0 0 256.68 245.97">
  <defs>
    <style>
      .cls-1 {
        fill: #295fac;
      }

      .cls-2 {
        isolation: isolate;
      }

      .cls-3 {
        fill: #6198d1;
      }

      .cls-4 {
        fill: #6098d1;
      }

      .cls-5 {
        fill: #37b4d1;
      }

      .cls-6 {
        fill: #80cddf;
      }

      .cls-7 {
        fill: #1a264b;
      }

      .cls-8 {
        fill: #1287b5;
      }
    </style>
  </defs>
  <title>梦幻彼岸大</title>
  <g>
    <path class="cls-1" d="M238.25,264.18" transform="translate(-150.04 -139.88)"/>
    <g class="cls-2">
      <path class="cls-3" d="M179.11,376.63h-7.69l-.68,4.93a.85.85,0,0,0,0,.23.18.18,0,0,0,.19.2,1.52,1.52,0,0,0,.47-.1,15.2,15.2,0,0,0,1.59-.48l.57-.17.6-.2c.64-.2,1.2-.39,1.7-.58l-.82-2.78h2.46l2,6.54H177l-.49-1.63q-1.56.56-2.79.93l-1.5.47-1.42.45a3.84,3.84,0,0,1-1.07.15,1.66,1.66,0,0,1-1.07-.32,1.63,1.63,0,0,1-.54-1.33c0-.12,0-.31,0-.57l2.08-15.43a2.26,2.26,0,0,1,.75-1.56,3.44,3.44,0,0,1,2-.44h5c1.55,0,2.33.58,2.33,1.73a2.26,2.26,0,0,1,0,.42Zm-1.86-4.85h-5.14l-.39,2.8h5.17Zm.6-4.79h-5.06l-.41,2.83h5.11Zm10.61.51h-3.72l-2.32,18.34h-2.57l2.32-18.6a1.91,1.91,0,0,1,2.3-2H189c1.35,0,2,.59,2,1.75,0,.09,0,.26-.05.53L189.44,380a1.87,1.87,0,0,1-2.07,1.85,8.79,8.79,0,0,1-1.58-.16,11.22,11.22,0,0,1-1.62-.42l.32-2.22a18.18,18.18,0,0,0,1.95.42,1,1,0,0,0,.27,0,.32.32,0,0,0,.26-.1,1.16,1.16,0,0,0,.12-.35Z" transform="translate(-150.04 -139.88)"/>
      <path class="cls-3" d="M204.1,364.29l-1.31,2.28-1,1.65-.27.45-1.89,17.05H197l1.59-12.32-1.18,1.76h-3a63.77,63.77,0,0,0,3.6-5.31c1.06-1.77,2.09-3.62,3.07-5.56Zm9-.05-.28,2.23h6.08l-.25,2.1h-6.1l-.22,1.73h3.58q2.42,0,2.16,2.28l-.71,4.8h-6.07a11.85,11.85,0,0,1-1.64,3.63,18.08,18.08,0,0,0,3.82,1.64,33.63,33.63,0,0,0,5.07,1.09l-1.59,2a27.39,27.39,0,0,1-4.78-1.18,20.67,20.67,0,0,1-4-1.87,19.4,19.4,0,0,1-5.22,3.17l-2.08-1.47q2.06-.93,3.27-1.59a11.91,11.91,0,0,0,2.12-1.44,24.75,24.75,0,0,1-3.26-3.21H206a11.82,11.82,0,0,0,1.72,1.58,11.8,11.8,0,0,0,1-2.33h-5.8l.63-4.78a2.39,2.39,0,0,1,2.68-2.3h3.61l.22-1.73h-6.62l.27-2.1h6.62l.27-2.23Zm-3.53,8.11H206l-.36,3h3.53l.16-1.05Zm2.13,3h3.53l.41-3h-3.55l-.22,1.9Z" transform="translate(-150.04 -139.88)"/>
      <path class="cls-3" d="M245.61,383.17l-.79,2.3H233.44a9.49,9.49,0,0,1-4.13-.9,7.87,7.87,0,0,1-2.48-1.83,9.24,9.24,0,0,1-2.33,3l-2.71-.65a11.94,11.94,0,0,0,2.3-2.69,7.91,7.91,0,0,0,1.15-3.07l.82-6.41h-3.25l.3-2.35h4a1.65,1.65,0,0,1,1.19.41,1.53,1.53,0,0,1,.43,1.17,2.49,2.49,0,0,1,0,.45l-1,7.06a.91.91,0,0,0,0,.27l-.08.3a6.63,6.63,0,0,0,2.3,2,8.36,8.36,0,0,0,4.46.91Zm-20.73-18.6,5,1.92-.31,2.56-5.05-2Zm15.54-.36-.91,6.81h6.27l-.33,2.16h-6.13l1.67,1.65q1.72,1.73,3.31,3.45l1.39,1.56L243.31,381q-2.9-3.65-4.4-5.43l-.9,6.91h-2.49l.88-6.68A27.11,27.11,0,0,1,231,381l-2.11-1.18a33,33,0,0,0,3.68-3.1,31.28,31.28,0,0,0,3.1-3.58h-5.28l.28-2.16H237l.91-6.81Zm-6.24,1.16,1.4,4.58H233.2l-1.34-4.58Zm11.43,0-1.91,4.68h-2.44l2-4.68Z" transform="translate(-150.04 -139.88)"/>
      <path class="cls-3" d="M255.87,379c-.61,1.46-1.14,2.67-1.62,3.6-.23.47-.62,1.16-1.15,2.08l-.43.8h-2.85c.79-1.32,1.41-2.45,1.86-3.38.64-1.32,1.12-2.35,1.45-3.1Zm-4.63-5.29,5.06,2L256,378l-5.11-2Zm14.25-9.56h2.65l-.27,2h5.72l-.28,2.13H267.6l-.22,1.62h-2.6l.19-1.62h-5.63l-.22,1.7H256.5l.19-1.7H251l.27-2.13H257l.25-2h2.65l-.28,2h5.67Zm-13.12,5.66,5.16,2.1-.32,2.28-5.15-2.2ZM271.54,383l-.28,2.25H260.9c-1.41,0-2.11-.58-2.11-1.73a3.16,3.16,0,0,1,0-.5l1-7.66H257.7l.3-2.25h6.4l-.85-2.63h2.87l.93,2.63h5.55l-.3,2.25h-9.92l-1,7.64Z" transform="translate(-150.04 -139.88)"/>
      <path class="cls-3" d="M283.81,374l.28-2.35L287,371l.6-4.93h2.68l-.52,4.35,4.84-1,.61-5.16h2.57l-.55,4.61,5.47-1.12a3.8,3.8,0,0,1,.87-.13,1.49,1.49,0,0,1,1.13.41,1.7,1.7,0,0,1,.38,1.17,2.49,2.49,0,0,1,0,.45L304,377.13a2.2,2.2,0,0,1-2.76,2.11c-.34,0-.94-.1-1.78-.23a8.9,8.9,0,0,1-1.61-.38l.3-2.22a20.56,20.56,0,0,0,2.49.55l.3,0a.44.44,0,0,0,.38-.15,1.28,1.28,0,0,0,.17-.57l.85-6.09-5.36,1.1-1.1,9.37h-2.6l1-8.84-4.84,1-1.12,9.34a.53.53,0,0,0,.15.49,1,1,0,0,0,.59.14h8.83a36.58,36.58,0,0,0,4.32-.23,21.4,21.4,0,0,0,3.59-.73l-.33,2.61a19.17,19.17,0,0,1-3.34.62,40.92,40.92,0,0,1-4.21.18h-9.76c-1.73,0-2.6-.69-2.6-2.08a4.52,4.52,0,0,1,.06-.55l1.09-9.24Z" transform="translate(-150.04 -139.88)"/>
      <path class="cls-3" d="M333.33,376.58l-.27,2.05h-3.77a16.52,16.52,0,0,1-3.75,3.36c1.06.27,1.94.5,2.65.7l1.15.3,3.12.88-1.7,1.93q-2.89-1-7.87-2.43a26.66,26.66,0,0,1-4.65,1.39q-2.52.51-6.23,1l-1.51-1.83c1.88-.2,3.53-.41,5-.65a35.75,35.75,0,0,0,3.93-.85l-3.56-.9a1.85,1.85,0,0,1-.83-.41.87.87,0,0,1-.31-.64,1.09,1.09,0,0,1,.43-.8c.46-.42.8-.75,1-1h-5l.28-2.05h6.59c.69-.8,1.16-1.37,1.42-1.73h-6.62l.44-4.38c.16-1.16,1-1.75,2.38-1.75h3.39l.19-1.63h-6.67l.3-2.12h21l-.3,2.12h-6.43l-.19,1.63h3.2a2.68,2.68,0,0,1,1.67.46,1.63,1.63,0,0,1,.57,1.34,2.1,2.1,0,0,1,0,.4l-.41,3.93h-9.73L321,376.58Zm-14.49-5.86h-3l-.25,2.16h3Zm3.72,10.47a13.69,13.69,0,0,0,3.69-2.56h-6.92l-.68.78q-.66.68-.6.63C319.38,380.35,320.88,380.74,322.56,381.19Zm1.78-10.47h-3.09l-.25,2.16h3.09Zm.44-3.63h-3.12l-.19,1.63h3.11Zm1.75,5.79h3.17l.24-2.16h-3.17Z" transform="translate(-150.04 -139.88)"/>
      <path class="cls-3" d="M346.52,380.44h-5.14l-.66,5.2h-2.44l1.67-13a2.52,2.52,0,0,1,.69-1.63,2.4,2.4,0,0,1,1.66-.5H348a2,2,0,0,1,1.42.45,1.72,1.72,0,0,1,.47,1.3,3,3,0,0,1,0,.48l-1.26,10.39a3,3,0,0,1-.73,2,2.56,2.56,0,0,1-1.92.48,16.57,16.57,0,0,1-3-.48l.25-2.1a20,20,0,0,0,2.43.45.69.69,0,0,0,.22,0,.32.32,0,0,0,.26-.1,1.16,1.16,0,0,0,.12-.35Zm-2.27-16.33H347l.93,2.63h5.25l1.15-2.63h3L356,366.74h5.74l-.3,2.16H338.91l.28-2.16h6Zm2.7,12.4h-5.06l-.27,2h5.11Zm.41-3.93h-5l-.25,2h5Zm3.83,8.53,1.26-9.89h2.41l-1.26,9.89Zm6.59-11h2.46l-1.53,13.29a2.87,2.87,0,0,1-.74,1.79,2.3,2.3,0,0,1-1.64.54,4,4,0,0,1-.57,0,18,18,0,0,1-3.78-.77l.25-2.3q1.33.38,3.45.75l.24,0a.18.18,0,0,0,.18-.09,1.68,1.68,0,0,0,.1-.33Z" transform="translate(-150.04 -139.88)"/>
      <path class="cls-3" d="M375.09,369.45c-1.06,1.35-2,2.54-2.87,3.58l-1.64,12.47H367.9l1.23-9L368,377.73h-3.36q2.71-2.78,4.21-4.53t3.09-3.75Zm-.27-5.26q-1.83,2.24-3.42,4.08c-.58.7-1.46,1.67-2.63,2.9l-.38.41h-3.5q1.62-1.63,3.67-3.94c.89-1,1.86-2.16,2.89-3.45Zm13.64,9.64h-3.72l-1.25,9.94a1.93,1.93,0,0,1-2.08,1.92,6.13,6.13,0,0,1-1.23-.13c-.44-.09-1.06-.24-1.86-.44s-1.49-.43-2.33-.73l.3-2.35c1.15.37,2.53.73,4.13,1.08l.17,0c.16,0,.26-.12.3-.35l1.09-9h-7.35l.27-2.33h13.86Zm.11-8.56-.27,2.3H376l.27-2.3Z" transform="translate(-150.04 -139.88)"/>
    </g>
    <g class="cls-2">
      <path class="cls-4" d="M167.19,280.86a2,2,0,0,0,.95,1.58,3.46,3.46,0,0,0,2.15.72h3.78a2.78,2.78,0,0,1,2.06.88,3,3,0,0,1,.86,2.19v2a2.89,2.89,0,0,1-.86,2.1,2.78,2.78,0,0,1-2.06.88h-3.78a3,3,0,0,0-2.15.91,2.86,2.86,0,0,0-.95,2.12v23a2.83,2.83,0,0,1-.87,2.08,2.89,2.89,0,0,1-2.11.86h-1.14a3.12,3.12,0,0,1-2.23-.86,2.74,2.74,0,0,1-.92-2.08v-23a3,3,0,0,0-.87-2.12,2.86,2.86,0,0,0-2.17-.91H153a2.8,2.8,0,0,1-2.08-.88,2.85,2.85,0,0,1-.86-2.1v-2a3,3,0,0,1,.86-2.19,2.8,2.8,0,0,1,2.08-.88h3.9a3.28,3.28,0,0,0,2.17-.72,2.06,2.06,0,0,0,.87-1.58,2.13,2.13,0,0,1,.92-1.74,3.51,3.51,0,0,1,2.23-.73h1.14a3.24,3.24,0,0,1,2.11.73A2.19,2.19,0,0,1,167.19,280.86Zm-8.75,27.52a8.71,8.71,0,0,1-.56,2.81,8.48,8.48,0,0,1-1.34,2.56l-1.39,1.65a5.64,5.64,0,0,1-1.78,1.69,3.74,3.74,0,0,1-1.77.65,1.29,1.29,0,0,1-1.13-.87,4.6,4.6,0,0,1-.43-2.08v-2a7.07,7.07,0,0,1,.26-2.08q.25-.87.69-.87c.29,0,.52-.32.69-1a8,8,0,0,0,.26-2.17v-8.14a2.8,2.8,0,0,1,1-2.17,3.1,3.1,0,0,1,2.16-.87h.35a2.94,2.94,0,0,1,2.17.87,3,3,0,0,1,.86,2.17ZM158.1,323c0,.41.28.74.86,1a5.3,5.3,0,0,0,2.17.39h42.11a3,3,0,0,1,3,3V348.5a7.54,7.54,0,0,1-.61,2.73,5.5,5.5,0,0,1-1.56,2.3L202,355.78a6.36,6.36,0,0,1-2.38,1.56,7.54,7.54,0,0,1-2.73.61H153a2.8,2.8,0,0,1-2.08-.91,3,3,0,0,1-.86-2.13v-2a2.93,2.93,0,0,1,.86-2.17,2.86,2.86,0,0,1,2.08-.86h28.69a3.16,3.16,0,0,0,2.12-.78,2.42,2.42,0,0,0,.91-1.91,2.76,2.76,0,0,0-.91-2.08,3,3,0,0,0-2.12-.87H153a2.81,2.81,0,0,1-2.08-.89,2.92,2.92,0,0,1-.86-2.1v-1.12a3,3,0,0,1,.86-2.18,2.81,2.81,0,0,1,2.09-.9h30.39a8.46,8.46,0,0,1,2.78.56,7.74,7.74,0,0,1,2.52,1.42l1.82,1.72a6,6,0,0,1,1.61,2.24,6.74,6.74,0,0,1,.65,2.67v1.2a3,3,0,0,0,.81,2.16,2.56,2.56,0,0,0,1.92.86,2.5,2.5,0,0,0,2-.87,3.16,3.16,0,0,0,.77-2.17V335.42a2.82,2.82,0,0,0-.87-2.08,2.93,2.93,0,0,0-2.16-.87H159.48a7.08,7.08,0,0,1-2.73-.65,8.6,8.6,0,0,1-2.38-1.43l-2.25-2.25a7.61,7.61,0,0,1-1.48-2.17,5.45,5.45,0,0,1-.6-2.17,1.93,1.93,0,0,1,.86-1.6,3.39,3.39,0,0,1,2.08-.65h2.08a5.3,5.3,0,0,1,2.17.39Q158.1,322.33,158.1,323Zm17.33-16.29a8,8,0,0,0,.26,2.17c.17.63.4,1,.69,1s.53.29.74.87a6.39,6.39,0,0,1,.3,2.08v2a3.94,3.94,0,0,1-.52,2.08,1.57,1.57,0,0,1-1.39.87,3.4,3.4,0,0,1-1.82-.7,8.38,8.38,0,0,1-1.82-1.64l-1-1.65a7.83,7.83,0,0,1-1.38-2.64,9.22,9.22,0,0,1-.52-2.82v-9.7a3,3,0,0,1,.86-2.17,2.94,2.94,0,0,1,2.17-.87h.43a3,3,0,0,1,2.13.87,2.9,2.9,0,0,1,.91,2.17Zm5.2-20.5a3,3,0,0,1,.86-2.19,2.91,2.91,0,0,1,2.17-.88h3.81a3.28,3.28,0,0,0,2.17-.72,2.06,2.06,0,0,0,.87-1.58,2.18,2.18,0,0,1,.86-1.74,3.29,3.29,0,0,1,2.17-.73h1.21a3.29,3.29,0,0,1,2.17.73,2.19,2.19,0,0,1,.87,1.74,2,2,0,0,0,.86,1.58,3.15,3.15,0,0,0,2.08.72h3.73a2.94,2.94,0,0,1,2.12.88,2.89,2.89,0,0,1,.91,2.19v2a2.79,2.79,0,0,1-.91,2.1,2.94,2.94,0,0,1-2.12.88h-3.73a2.76,2.76,0,0,0-2.08.91,3,3,0,0,0-.86,2.12v23a2.83,2.83,0,0,1-.87,2.08,2.93,2.93,0,0,1-2.17.86h-1.21a2.93,2.93,0,0,1-2.17-.86,2.82,2.82,0,0,1-.86-2.08v-23a3,3,0,0,0-.87-2.12,2.86,2.86,0,0,0-2.17-.91h-3.81a3,3,0,0,1-3-3Zm0,26.57a7.07,7.07,0,0,1,.26-2.08q.26-.87.6-.87c.29,0,.54-.32.74-1a7.25,7.25,0,0,0,.3-2.17v-8.14a3,3,0,0,1,3-3H186a2.94,2.94,0,0,1,2.17.87,3,3,0,0,1,.86,2.17v9.79a8.71,8.71,0,0,1-.56,2.81,7.4,7.4,0,0,1-1.43,2.56l-1.39,1.65a6.78,6.78,0,0,1-1.82,1.69,3.48,3.48,0,0,1-1.64.65,1.29,1.29,0,0,1-1.13-.87,4.6,4.6,0,0,1-.43-2.08Zm22.27-17.25a3.11,3.11,0,0,1,3,3v8.14a8.44,8.44,0,0,0,.26,2.17c.17.63.4,1,.69,1s.52.29.7.87a7.42,7.42,0,0,1,.26,2.08v2a4,4,0,0,1-.52,2.08,1.51,1.51,0,0,1-1.3.87,3.34,3.34,0,0,1-1.74-.7,8.38,8.38,0,0,1-1.82-1.64l-1.12-1.65a7.84,7.84,0,0,1-1.39-2.64,9.22,9.22,0,0,1-.52-2.82l.09-9.7a3,3,0,0,1,.86-2.13,2.8,2.8,0,0,1,2.08-.91Z" transform="translate(-150.04 -139.88)"/>
      <path class="cls-4" d="M216.33,354.39a20,20,0,0,1,.26-2.9,15.48,15.48,0,0,1,.69-2.9l9.36-27.21a2,2,0,0,0-.17-2,2.27,2.27,0,0,0-1.91-.78h-5.28a2.75,2.75,0,0,1-2.08-.91,3.08,3.08,0,0,1-.87-2.21V312.7a21.36,21.36,0,0,1,.26-3,15.51,15.51,0,0,1,.69-3l8.32-25.62a4,4,0,0,1,1.61-2,4.24,4.24,0,0,1,2.38-.78h2.86a2.14,2.14,0,0,1,1.86.78,2.06,2.06,0,0,1,.13,2l-9.1,26.5a2.29,2.29,0,0,0,.13,2.09,2,2,0,0,0,1.78.86H231a3.73,3.73,0,0,1,2.29.83,4.43,4.43,0,0,1,1.52,2l.6,2a7.28,7.28,0,0,1,.35,2.86,10.14,10.14,0,0,1-.52,2.86L226.3,347a2.18,2.18,0,0,0,.26,2,2.2,2.2,0,0,0,1.9.83h2.77a3,3,0,0,0,3-3V336.28a2.81,2.81,0,0,1,.92-2.16,3.13,3.13,0,0,1,2.23-.87h1.93a2.86,2.86,0,0,1,2.1.87,2.93,2.93,0,0,1,.88,2.16V348.5a7.37,7.37,0,0,1-.62,2.73,6.77,6.77,0,0,1-1.4,2.3l-2.19,2.25a7.31,7.31,0,0,1-2.49,1.56,7.73,7.73,0,0,1-2.75.61h-13.6a2.78,2.78,0,0,1-2.08-.91,3,3,0,0,1-.87-2.13Zm25-73.1a2.82,2.82,0,0,1,.91-2.11,3,3,0,0,1,2.12-.87H271a2.94,2.94,0,0,1,2.17.87,2.85,2.85,0,0,1,.86,2.08v67.23a7.51,7.51,0,0,1-.6,2.73,5.62,5.62,0,0,1-1.56,2.3l-2.08,2.17a8.13,8.13,0,0,1-5.2,2.17H249.78a2.76,2.76,0,0,1-2.08-.91,3,3,0,0,1-.87-2.12v-2.08a3,3,0,0,1,2.95-2.95H263a2.94,2.94,0,0,0,2.17-.87,2.91,2.91,0,0,0,.86-2.16V289.4a3,3,0,0,0-.86-2.12,2.86,2.86,0,0,0-2.17-.91H244.32a2.93,2.93,0,0,1-2.12-.88,2.89,2.89,0,0,1-.91-2.19Z" transform="translate(-150.04 -139.88)"/>
      <path class="cls-4" d="M298.57,295.64a3,3,0,0,1-3,3h-10a2.86,2.86,0,0,1-2.08-.86,2.94,2.94,0,0,1-.87-2.17v-1.82a3.09,3.09,0,0,1,.88-2.21,2.79,2.79,0,0,1,2.1-.91l1.93-.09a2.81,2.81,0,0,0,2.1-.9,2.92,2.92,0,0,0,.88-2.11v-6.28a2.78,2.78,0,0,1,.9-2.07,3,3,0,0,1,2.1-.86h2.06a3,3,0,0,1,3,2.95ZM289.44,358a2.89,2.89,0,0,1-2.1-.91,2.94,2.94,0,0,1-.9-2.13V324.06a4.1,4.1,0,0,0-.57-2.16,1.59,1.59,0,0,0-1.34-1,1.58,1.58,0,0,1-1.34-.91,4.06,4.06,0,0,1-.57-2.21V316a3.11,3.11,0,0,1,.88-2.21,2.82,2.82,0,0,1,2.1-.91h1.93a2.79,2.79,0,0,0,2.1-.91,2.93,2.93,0,0,0,.88-2.12v-5.37a2.91,2.91,0,0,1,.9-2.12,2.85,2.85,0,0,1,2.1-.91h2.06a2.81,2.81,0,0,1,2.14.91,3,3,0,0,1,.86,2.12v13.34A4,4,0,0,1,298,320a1.75,1.75,0,0,1-1.55.91,1.63,1.63,0,0,0-1.37,1,4.1,4.1,0,0,0-.57,2.16v30.85a3,3,0,0,1-.86,2.13,2.85,2.85,0,0,1-2.14.91Zm24.12-8.06a5,5,0,0,0,2.35-.7,9,9,0,0,0,2.17-1.56l.53-.43a3.16,3.16,0,0,0,.95-2.3,3.27,3.27,0,0,0-.87-2.29l-4.43-4.77a7.91,7.91,0,0,1-1.39-2.38,7.71,7.71,0,0,1-.61-2.9v-6.5a2.86,2.86,0,0,1,.91-2.17,3.08,3.08,0,0,1,2.21-.87h1.82a3.14,3.14,0,0,1,2.17.87,2.83,2.83,0,0,1,.95,2.17v3.29a9.19,9.19,0,0,0,.56,2.86,7.43,7.43,0,0,0,1.43,2.6l1.91,2.08a2.65,2.65,0,0,0,1.95.91,2.56,2.56,0,0,0,2-.91l2-2.25a7.42,7.42,0,0,0,1.56-2.52,7.87,7.87,0,0,0,.61-2.77V321.2a2.93,2.93,0,0,0-.91-2.12,3,3,0,0,0-2.21-.91h-16a3,3,0,0,0-2.16.91,2.84,2.84,0,0,0-1,2.12v33.71a3,3,0,0,1-.86,2.13,2.9,2.9,0,0,1-2.17.91h-5.63a2,2,0,0,1-1.65-.91,3.44,3.44,0,0,1-.69-2.13v-2a5.31,5.31,0,0,1,.38-2.17c.25-.57.6-.86,1-.86s.81-.29,1.09-.87a5,5,0,0,0,.43-2.17V286.2a2.75,2.75,0,0,1,.91-2.08,3.1,3.1,0,0,1,2.22-.87l10.89.08a3.24,3.24,0,0,0,2.17-.73,2.16,2.16,0,0,0,.88-1.69,2.22,2.22,0,0,1,.9-1.78,3.33,3.33,0,0,1,2.18-.74h2a3.31,3.31,0,0,1,2.1.73,2.16,2.16,0,0,1,.9,1.74,2.11,2.11,0,0,0,.87,1.66,3.19,3.19,0,0,0,2.11.73l7.2.08a3.15,3.15,0,0,1,2.24.87,2.77,2.77,0,0,1,.92,2.08v14.56a2.89,2.89,0,0,1-.92,2.12,3,3,0,0,1-2.23.91h-1.84a2.94,2.94,0,0,1-2.15-.91,2.89,2.89,0,0,1-.92-2.12v-6.41a3.34,3.34,0,0,0-.75-2.21,2.25,2.25,0,0,0-1.8-.91,2.4,2.4,0,0,0-2,.91,3.34,3.34,0,0,0-.75,2.21v12.65a3,3,0,0,0,3,3h7.2a3.06,3.06,0,0,1,2.24.91,3,3,0,0,1,.92,2.21v19.33a7.44,7.44,0,0,1-.61,2.86,6.86,6.86,0,0,1-1.47,2.33l-5,5a3.05,3.05,0,0,0-.91,2.17,3.27,3.27,0,0,0,.73,2.25l.44.43a7.2,7.2,0,0,0,2.12,1.56,5.12,5.12,0,0,0,2.29.7,2.16,2.16,0,0,1,1.74.86,3.38,3.38,0,0,1,.69,2.17v2a2.92,2.92,0,0,1-.91,2.13,3.06,3.06,0,0,1-2.22.91h-1.74a7.17,7.17,0,0,1-2.74-.65,6,6,0,0,1-2.3-1.61l-2.87-3a2.59,2.59,0,0,0-2-1,2.86,2.86,0,0,0-2.17.91l-3.22,3.21a6.33,6.33,0,0,1-2.39,1.56,7.72,7.72,0,0,1-2.82.61h-1A3.1,3.1,0,0,1,312,357a2.88,2.88,0,0,1-.95-2.13v-2a3.12,3.12,0,0,1,.78-2.17A2.32,2.32,0,0,1,313.56,349.89Zm-3.47-42.83a2.82,2.82,0,0,0,1,2.18,3.1,3.1,0,0,0,2.16.87h2.86a3,3,0,0,0,3-3V294.43a3.06,3.06,0,0,0-.87-2.21,2.86,2.86,0,0,0-2.17-.91l-2.86-.09a3,3,0,0,0-2.16.91,3,3,0,0,0-1,2.22Z" transform="translate(-150.04 -139.88)"/>
      <path class="cls-4" d="M406.72,310.42a2.9,2.9,0,0,1-.87,2.11,2.83,2.83,0,0,1-2.08.87H363a2.78,2.78,0,0,0-2.08.91,3,3,0,0,0-.87,2.13v38.39a2.94,2.94,0,0,1-.9,2.12,2.85,2.85,0,0,1-2.1.91H352a3.07,3.07,0,0,1-3-3v-2.08a4.44,4.44,0,0,1,.44-2.08c.3-.58.66-.87,1.07-.87a1.24,1.24,0,0,0,1.12-.87,5.13,5.13,0,0,0,.4-2.17V308.3a2.78,2.78,0,0,1,.91-2.09,3,3,0,0,1,2.12-.87h48.8a2.82,2.82,0,0,1,2.07.88,2.89,2.89,0,0,1,.87,2.1Zm-23-20.5a3.11,3.11,0,0,0,3,3h8.87a2.86,2.86,0,0,0,2.16-.91,3,3,0,0,0,.86-2.12v-6.15a2.86,2.86,0,0,1,.91-2.17,3.06,3.06,0,0,1,2.21-.87h2a2.83,2.83,0,0,1,2.08.87,2.94,2.94,0,0,1,.87,2.17v14.12a3.14,3.14,0,0,1-.87,2.17,2.68,2.68,0,0,1-2.07.95H355.24a2.76,2.76,0,0,1-2.16-.95,3.14,3.14,0,0,1-.87-2.17V283.77a3,3,0,0,1,.86-2.17,2.87,2.87,0,0,1,2.14-.87h2a2.93,2.93,0,0,1,2.1.87,2.89,2.89,0,0,1,.9,2.17v6.15a3.11,3.11,0,0,0,3,3h9.44a2.86,2.86,0,0,0,2.17-.91,3,3,0,0,0,.86-2.12v-8.58a2.77,2.77,0,0,1,.92-2.08,3,3,0,0,1,2.15-.87h2a2.9,2.9,0,0,1,2.11.87,2.83,2.83,0,0,1,.87,2.08Zm9.87,37.78a2.8,2.8,0,0,0-2.07.87,2.82,2.82,0,0,0-.86,2.08v4.25a3,3,0,0,0,2.93,2.94h10.17a2.76,2.76,0,0,1,2.07.91,2.92,2.92,0,0,1,.86,2v2.08a3,3,0,0,1-.86,2.16,2.83,2.83,0,0,1-2.07.87H393.62a2.8,2.8,0,0,0-2.07.87,2.91,2.91,0,0,0-.86,2.16v6a2.86,2.86,0,0,1-1,2.13,3.06,3.06,0,0,1-2.16.91h-2a2.8,2.8,0,0,1-2.08-.91,3,3,0,0,1-.86-2.13v-6a2.88,2.88,0,0,0-.91-2.16,3,3,0,0,0-2.13-.87H366.25a3,3,0,0,1-2.12-.87,2.84,2.84,0,0,1-.91-2.16v-2.08a2.82,2.82,0,0,1,.91-2,2.88,2.88,0,0,1,2.12-.91h13.34a3,3,0,0,0,2.13-.87,2.76,2.76,0,0,0,.91-2.07v-4.25a2.8,2.8,0,0,0-.91-2.08,3,3,0,0,0-2.13-.87H366.25a3,3,0,0,1-2.12-.86,2.86,2.86,0,0,1-.91-2.17v-2.08a2.76,2.76,0,0,1,.91-2.08,3,3,0,0,1,2.12-.87h37.53a2.8,2.8,0,0,1,2.07.87,2.83,2.83,0,0,1,.87,2.08v2.08a3,3,0,0,1-.86,2.17,2.86,2.86,0,0,1-2.07.86Z" transform="translate(-150.04 -139.88)"/>
    </g>
    <path class="cls-5" d="M291.49,261.2c-10.4,2.6-20.79,5.1-31.19,7.7s-10.5,2.79-10.69-7.61c1.92-3.27,5.39-3.56,8.47-4.43,3.66-1,5.59-2.88,5.59-6.83V161.35c0-3.85-1.74-6-5.49-7-3.08-.87-6.65-.87-8.57-4.14v-10.3l41.88,10.39c5.59-1.92,10.5.2,15.12,2.8,3.37,1.83,2.79,5.77,2.79,9,.1,24,0,48,0,72v14.83c-.09,9-.77,9.82-9.63,12.23C297.08,261.78,294.38,263,291.49,261.2Z" transform="translate(-150.04 -139.88)"/>
    <path class="cls-6" d="M291.49,261.2c16-4.24,16-4.24,16-20.8,0-26.38-.1-52.86.09-79.24,0-5.2-1.15-8-6.64-8.57-3.18-.29-6.35-1.54-9.44-2.32.49-11.36-1.83-10.88,10.69-7.51,12.81,3.37,25.52,7,38.42,9.92,5.49,1.25,7.7,3.28,7.61,9.34-.29,29.37-.2,58.74-.1,88.1,0,4.53-.67,6.84-5.78,8-15,3.46-30,7.51-44.87,11.84-5.39,1.54-6.45-.29-5.87-5A15.7,15.7,0,0,0,291.49,261.2Z" transform="translate(-150.04 -139.88)"/>
    <path class="cls-7" d="M248.45,261c-11.65,3.09-23.39,6-35,9.25-4,1.15-5.2.38-5.11-3.95q.15-60.66,0-121.22c0-4.43,1.16-5.11,5.2-4,11.65,3.27,23.3,6.16,35.05,9.24,3,1.73,3,4.72,3,7.61q.15,47.66,0,95.42C251.44,256.29,251.44,259.27,248.45,261Z" transform="translate(-150.04 -139.88)"/>
    <path class="cls-8" d="M248.45,261c1.35-1.82,1.06-3.85,1.06-5.87V156.24c0-2,.29-4.14-1.06-5.87a2.62,2.62,0,0,1,1.16-.29c.77.29,1.54.48,2.31.77,13.58,3.85,13.58,3.85,13.58,17.72,0,27.44-.2,54.88.19,82.32.1,4.92-1.64,6.84-6.07,7.8-3.37.68-6.64,1.83-10,2.7A5.28,5.28,0,0,1,248.45,261Z" transform="translate(-150.04 -139.88)"/>
  </g>
</svg>
